# xmcd
#
# Track frame offsets: 
#        150
#        13546
#        30403
#        44007
#        60353
#        78453
#        100351
#        114296
#        126085
#        141531
#
# Disc length: 2089 seconds
#
# Revision: 0
# Processed by: cddbd v1.5.2PL0 Copyright (c) Steve Scherf et al.
# Submitted via: ExactAudioCopy v1.3
#
DISCID=8008270a
DTITLE=Bobby Bare - Things Change
DYEAR=2017
DGENRE=Country
TTITLE0=Things Change
TTITLE1=The End
TTITLE2=Ain’t No Sure Thing
TTITLE3=The Trouble With Angels
TTITLE4=I Drink
TTITLE5=Mercy Now
TTITLE6=Trophy Girl
TTITLE7=Where Did It Go
TTITLE8=You Got the Light
TTITLE9=Detroit City (feat. Chris Stapleton)
EXTD=
EXTT0=
EXTT1=
EXTT2=
EXTT3=
EXTT4=
EXTT5=
EXTT6=
EXTT7=
EXTT8=
EXTT9=
PLAYORDER=
